# This file uses centimeters as units for non-parametric coordinates.

mtllib steps_end.mtl
g default
v -0.957037 -13.236394 -1.520459
v -0.957037 -13.130474 -1.520459
v -0.416755 -13.236394 -1.740733
v -0.416755 -13.130474 -1.740733
v -0.221699 -13.130474 -0.907841
v -0.514150 -13.130474 -0.788609
v -0.514150 -13.236394 -0.788609
v -0.221699 -13.236394 -0.907841
v -0.514150 -13.130474 -0.788609
v -0.514150 -13.236394 -0.788609
v 0.165152 -13.236393 -1.783268
v 0.093285 -13.236393 -0.930866
v 0.165152 -13.130474 -1.783268
v 0.093285 -13.130474 -0.930866
v 0.093285 -13.236393 -0.930866
v 0.093285 -13.130474 -0.930866
v -1.702722 -16.842768 -1.230011
v -1.702722 -16.736849 -1.230011
v -1.214767 -16.842768 -1.702675
v -1.214767 -16.736849 -1.702675
v -0.642229 -16.736849 -0.887671
v -0.906357 -16.736849 -0.631820
v -0.906357 -16.842768 -0.631820
v -0.642229 -16.842768 -0.887671
v -0.906357 -16.736849 -0.631820
v -0.906357 -16.842768 -0.631820
v -0.604635 -16.842768 -2.001416
v -0.311966 -16.842768 -1.049377
v -0.604635 -16.736849 -2.001416
v -0.311966 -16.736849 -1.049377
v -0.311966 -16.842768 -1.049377
v -0.311966 -16.736849 -1.049377
v 1.352324 -4.843339 -0.435628
v 1.352324 -4.737420 -0.435628
v 1.424410 -4.843339 0.019501
v 1.424410 -4.737420 0.019501
v 0.748814 -4.737420 0.019501
v 0.709795 -4.737420 -0.226858
v 0.709795 -4.843339 -0.226858
v 0.748814 -4.843339 0.019501
v 0.709795 -4.737420 -0.226858
v 0.709795 -4.843339 -0.226858
v 1.352324 -4.843339 0.474629
v 0.709795 -4.843339 0.265860
v 1.352324 -4.737420 0.474629
v 0.709795 -4.737420 0.265860
v 0.709795 -4.843339 0.265860
v 0.709795 -4.737420 0.265860
v -0.323753 -9.640242 -1.541258
v -0.323753 -9.534322 -1.541258
v 0.189230 -9.640242 -1.559278
v 0.189230 -9.534322 -1.559278
v 0.097670 -9.534322 -0.812306
v -0.180004 -9.534322 -0.802552
v -0.180004 -9.640242 -0.802552
v 0.097670 -9.640242 -0.812306
v -0.180004 -9.534322 -0.802552
v -0.180004 -9.640242 -0.802552
v 0.682673 -9.640241 -1.417896
v 0.364769 -9.640241 -0.735777
v 0.682673 -9.534322 -1.417896
v 0.364769 -9.534322 -0.735777
v 0.364769 -9.640241 -0.735777
v 0.364769 -9.534322 -0.735777
v -0.418705 -6.043725 -1.349239
v -0.418705 -5.937806 -1.349239
v 0.038374 -6.043725 -1.407698
v 0.038374 -5.937806 -1.407698
v 0.018194 -5.937806 -0.732405
v -0.229221 -5.937806 -0.700761
v -0.229221 -6.043725 -0.700761
v 0.018194 -6.043725 -0.732405
v -0.229221 -5.937806 -0.700761
v -0.229221 -6.043725 -0.700761
v 0.491146 -6.043725 -1.322051
v 0.263277 -6.043725 -0.686044
v 0.491146 -5.937806 -1.322051
v 0.263277 -5.937806 -0.686044
v 0.263277 -6.043725 -0.686044
v 0.263277 -5.937806 -0.686044
vt 0.550000 0.312500
vt 0.562500 0.312500
vt 0.550000 0.688440
vt 0.562500 0.688440
vt 0.500000 0.756306
vt 0.500000 0.687500
vt 0.526136 0.760445
vt 0.548284 0.695147
vt 0.537500 0.312500
vt 0.537500 0.688440
vt 0.526136 0.233821
vt 0.548284 0.304853
vt 0.500000 0.237960
vt 0.500000 0.312500
vt 0.473864 0.760445
vt 0.451716 0.695147
vt 0.473864 0.233821
vt 0.451716 0.304853
vt 0.562500 0.312500
vt 0.550000 0.312500
vt 0.562500 0.312500
vt 0.562500 0.688440
vt 0.562500 0.688440
vt 0.550000 0.688440
vt 0.537500 0.312500
vt 0.537500 0.312500
vt 0.537500 0.688440
vt 0.537500 0.688440
vt 0.550000 0.312500
vt 0.562500 0.312500
vt 0.550000 0.688440
vt 0.562500 0.688440
vt 0.500000 0.756306
vt 0.500000 0.687500
vt 0.526136 0.760445
vt 0.548284 0.695147
vt 0.537500 0.312500
vt 0.537500 0.688440
vt 0.526136 0.233821
vt 0.548284 0.304853
vt 0.500000 0.237960
vt 0.500000 0.312500
vt 0.473864 0.760445
vt 0.451716 0.695147
vt 0.473864 0.233821
vt 0.451716 0.304853
vt 0.562500 0.312500
vt 0.550000 0.312500
vt 0.562500 0.312500
vt 0.562500 0.688440
vt 0.562500 0.688440
vt 0.550000 0.688440
vt 0.537500 0.312500
vt 0.537500 0.312500
vt 0.537500 0.688440
vt 0.537500 0.688440
vt 0.550000 0.312500
vt 0.562500 0.312500
vt 0.550000 0.688440
vt 0.562500 0.688440
vt 0.500000 0.756306
vt 0.500000 0.687500
vt 0.526136 0.760445
vt 0.548284 0.695147
vt 0.537500 0.312500
vt 0.537500 0.688440
vt 0.526136 0.233821
vt 0.548284 0.304853
vt 0.500000 0.237960
vt 0.500000 0.312500
vt 0.473864 0.760445
vt 0.451716 0.695147
vt 0.473864 0.233821
vt 0.451716 0.304853
vt 0.562500 0.312500
vt 0.550000 0.312500
vt 0.562500 0.312500
vt 0.562500 0.688440
vt 0.562500 0.688440
vt 0.550000 0.688440
vt 0.537500 0.312500
vt 0.537500 0.312500
vt 0.537500 0.688440
vt 0.537500 0.688440
vt 0.550000 0.312500
vt 0.562500 0.312500
vt 0.550000 0.688440
vt 0.562500 0.688440
vt 0.500000 0.756306
vt 0.500000 0.687500
vt 0.526136 0.760445
vt 0.548284 0.695147
vt 0.537500 0.312500
vt 0.537500 0.688440
vt 0.526136 0.233821
vt 0.548284 0.304853
vt 0.500000 0.237960
vt 0.500000 0.312500
vt 0.473864 0.760445
vt 0.451716 0.695147
vt 0.473864 0.233821
vt 0.451716 0.304853
vt 0.562500 0.312500
vt 0.550000 0.312500
vt 0.562500 0.312500
vt 0.562500 0.688440
vt 0.562500 0.688440
vt 0.550000 0.688440
vt 0.537500 0.312500
vt 0.537500 0.312500
vt 0.537500 0.688440
vt 0.537500 0.688440
vt 0.550000 0.312500
vt 0.562500 0.312500
vt 0.550000 0.688440
vt 0.562500 0.688440
vt 0.500000 0.756306
vt 0.500000 0.687500
vt 0.526136 0.760445
vt 0.548284 0.695147
vt 0.537500 0.312500
vt 0.537500 0.688440
vt 0.526136 0.233821
vt 0.548284 0.304853
vt 0.500000 0.237960
vt 0.500000 0.312500
vt 0.473864 0.760445
vt 0.451716 0.695147
vt 0.473864 0.233821
vt 0.451716 0.304853
vt 0.562500 0.312500
vt 0.550000 0.312500
vt 0.562500 0.312500
vt 0.562500 0.688440
vt 0.562500 0.688440
vt 0.550000 0.688440
vt 0.537500 0.312500
vt 0.537500 0.312500
vt 0.537500 0.688440
vt 0.537500 0.688440
vn -0.228025 0.000000 -0.973655
vn -0.377529 0.000000 -0.925998
vn -0.228025 0.000000 -0.973655
vn -0.228025 0.000000 -0.973655
vn -0.377529 0.000000 -0.925998
vn -0.377529 0.000000 -0.925998
vn -0.000001 1.000000 0.000000
vn -0.000001 1.000000 0.000000
vn 0.000000 1.000000 0.000000
vn 0.000000 1.000000 0.000000
vn -0.000001 1.000000 0.000000
vn 0.000000 1.000000 0.000000
vn -0.072902 0.000000 -0.997339
vn -0.228025 0.000000 -0.973655
vn -0.072903 0.000000 -0.997339
vn -0.072903 0.000000 -0.997339
vn -0.228025 0.000000 -0.973655
vn -0.228025 0.000000 -0.973655
vn 0.000000 -1.000000 0.000000
vn 0.000000 -1.000000 0.000000
vn 0.000001 -1.000000 0.000000
vn 0.000001 -1.000000 0.000000
vn 0.000000 -1.000000 0.000000
vn 0.000000 -1.000000 0.000000
vn 0.000001 1.000000 0.000000
vn -0.000002 1.000000 0.000000
vn -0.000001 1.000000 0.000000
vn -0.000001 1.000000 0.000000
vn -0.000002 1.000000 0.000000
vn -0.000001 1.000000 0.000000
vn 0.000001 -1.000000 0.000000
vn 0.000000 -1.000000 0.000000
vn 0.000001 -1.000000 0.000000
vn 0.000001 -1.000000 0.000000
vn 0.000000 -1.000000 0.000000
vn 0.000000 -1.000000 0.000000
vn 0.000000 0.000000 0.000000
vn 0.228025 0.000000 0.973655
vn 0.377530 0.000000 0.925998
vn 0.000000 0.000000 0.000000
vn 0.377530 0.000000 0.925998
vn 0.377529 0.000000 0.925998
vn 0.228025 0.000000 0.973655
vn 0.228024 0.000000 0.973656
vn 0.377530 0.000000 0.925998
vn 0.228024 0.000000 0.973656
vn 0.377529 0.000000 0.925998
vn 0.377530 0.000000 0.925998
vn 0.000000 -1.000000 0.000000
vn 0.072903 -0.000006 0.997339
vn 0.228025 0.000000 0.973655
vn 0.122230 0.992502 0.000000
vn 0.228024 0.000000 0.973656
vn 0.072903 0.000006 0.997339
vn 0.072903 -0.000006 0.997339
vn 0.072903 0.000006 0.997339
vn 0.228025 0.000000 0.973655
vn 0.072903 0.000006 0.997339
vn 0.228024 0.000000 0.973656
vn 0.228025 0.000000 0.973655
vn 0.000000 0.000000 0.000000
vn -0.855540 0.000000 0.517737
vn -0.855537 0.000000 0.517742
vn 0.000000 0.000000 0.000000
vn -0.855537 0.000000 0.517742
vn -0.855537 0.000000 0.517741
vn -0.855540 0.000000 0.517737
vn -0.855537 0.000000 0.517741
vn -0.855540 0.000000 0.517737
vn -0.855537 0.000000 0.517741
vn -0.855537 0.000000 0.517742
vn -0.855540 0.000000 0.517737
vn 1.000000 0.000000 0.000000
vn 0.996465 0.000000 0.084012
vn 1.000000 0.000000 0.000000
vn 1.000000 0.000000 0.000000
vn 0.996465 0.000000 0.084012
vn 0.996465 0.000000 0.084012
vn 0.996465 0.000000 0.084012
vn 0.996465 0.000000 0.084013
vn 0.996465 0.000000 0.084012
vn 0.996465 0.000000 0.084013
vn 0.996465 0.000000 0.084013
vn 0.996465 0.000000 0.084012
vn -0.574834 0.000000 -0.818270
vn -0.695763 0.000000 -0.718271
vn -0.574834 0.000000 -0.818270
vn -0.574834 0.000000 -0.818270
vn -0.695763 0.000000 -0.718271
vn -0.695763 0.000000 -0.718271
vn -0.000001 1.000000 0.000000
vn 0.000001 1.000000 0.000000
vn 0.000001 1.000000 0.000000
vn 0.000001 1.000000 0.000000
vn 0.000001 1.000000 0.000000
vn 0.000001 1.000000 0.000000
vn -0.439750 0.000000 -0.898120
vn -0.574834 0.000000 -0.818270
vn -0.439750 0.000000 -0.898120
vn -0.439750 0.000000 -0.898120
vn -0.574834 0.000000 -0.818270
vn -0.574834 0.000000 -0.818270
vn 0.000001 -1.000000 0.000000
vn 0.000000 -1.000000 0.000000
vn 0.000000 -1.000000 0.000000
vn 0.000000 -1.000000 0.000000
vn 0.000000 -1.000000 0.000000
vn 0.000000 -1.000000 0.000000
vn -0.000003 1.000000 0.000000
vn 0.000000 1.000000 0.000000
vn -0.000001 1.000000 0.000000
vn -0.000001 1.000000 0.000000
vn 0.000000 1.000000 0.000000
vn 0.000001 1.000000 0.000000
vn 0.000000 -1.000000 0.000000
vn 0.000000 -1.000000 0.000000
vn -0.000001 -1.000000 0.000000
vn -0.000001 -1.000000 0.000000
vn 0.000000 -1.000000 0.000000
vn 0.000000 -1.000000 0.000000
vn 0.000000 0.000000 0.000000
vn 0.574834 0.000000 0.818270
vn 0.695759 0.000000 0.718275
vn 0.000000 0.000000 0.000000
vn 0.695759 0.000000 0.718275
vn 0.695758 0.000000 0.718276
vn 0.574834 0.000000 0.818270
vn 0.574833 0.000000 0.818271
vn 0.695759 0.000000 0.718275
vn 0.574833 0.000000 0.818271
vn 0.695758 0.000000 0.718276
vn 0.695759 0.000000 0.718275
vn 0.000000 0.000000 0.000000
vn 0.439747 0.000000 0.898122
vn 0.574834 0.000000 0.818270
vn 0.000000 0.000000 0.000000
vn 0.574833 0.000000 0.818271
vn 0.439747 0.000000 0.898122
vn 0.439747 0.000000 0.898122
vn 0.439747 0.000000 0.898122
vn 0.574834 0.000000 0.818270
vn 0.439747 0.000000 0.898122
vn 0.574833 0.000000 0.818271
vn 0.574834 0.000000 0.818270
vn 0.000000 0.000000 0.000000
vn -0.600592 0.000000 0.799556
vn -0.600587 0.000000 0.799560
vn 0.000000 0.000000 0.000000
vn -0.600587 0.000000 0.799560
vn -0.600587 0.000000 0.799560
vn -0.600592 0.000000 0.799555
vn -0.600587 0.000000 0.799560
vn -0.600592 0.000000 0.799556
vn -0.600587 0.000000 0.799560
vn -0.600587 0.000000 0.799560
vn -0.600592 0.000000 0.799556
vn 0.000000 0.000000 0.000000
vn 0.955855 0.000000 -0.293838
vn 0.000000 0.000000 0.000000
vn 0.000000 0.000000 0.000000
vn 0.955855 0.000000 -0.293838
vn 0.955855 0.000000 -0.293838
vn 0.955855 0.000000 -0.293838
vn 0.955855 0.000000 -0.293838
vn 0.955855 0.000000 -0.293838
vn 0.955855 0.000000 -0.293838
vn 0.955855 0.000000 -0.293838
vn 0.955855 0.000000 -0.293838
vn 1.000000 0.000000 0.000000
vn 0.987688 0.000000 -0.156435
vn 1.000000 0.000000 0.000000
vn 1.000000 0.000000 0.000000
vn 0.987688 0.000000 -0.156435
vn 0.987688 0.000000 -0.156435
vn 0.000000 1.000000 0.000000
vn 0.000000 1.000000 0.000000
vn 0.000000 1.000000 0.000000
vn 0.000000 1.000000 0.000000
vn 0.000000 1.000000 0.000000
vn 0.000000 1.000000 0.000000
vn 0.987688 0.000000 0.156434
vn 1.000000 0.000000 0.000000
vn 0.987688 0.000000 0.156434
vn 0.987688 0.000000 0.156434
vn 1.000000 0.000000 0.000000
vn 1.000000 0.000000 0.000000
vn 0.000000 -1.000000 0.000000
vn 0.000000 -1.000000 0.000000
vn 0.000000 -1.000000 0.000000
vn 0.000000 -1.000000 0.000000
vn 0.000000 -1.000000 0.000000
vn 0.000000 -1.000000 0.000000
vn 0.000000 1.000000 0.000000
vn 0.000000 1.000000 0.000000
vn 0.000000 1.000000 0.000000
vn 0.000000 1.000000 0.000000
vn 0.000000 1.000000 0.000000
vn 0.000000 1.000000 0.000000
vn 0.000000 -1.000000 0.000000
vn 0.000000 -1.000000 0.000000
vn 0.000000 -1.000000 0.000000
vn 0.000000 -1.000000 0.000000
vn 0.000000 -1.000000 0.000000
vn 0.000000 -1.000000 0.000000
vn 0.000000 -1.000000 0.000000
vn -1.000000 0.000000 0.000000
vn -0.987688 0.000000 0.156434
vn 0.000000 0.000000 1.000000
vn -0.987688 0.000000 0.156434
vn -0.987688 0.000001 0.156434
vn -1.000000 0.000000 0.000000
vn -1.000000 0.000000 0.000000
vn -0.987688 0.000000 0.156434
vn -1.000000 0.000000 0.000000
vn -0.987688 0.000001 0.156434
vn -0.987688 0.000000 0.156434
vn 0.000000 -1.000000 0.000000
vn -0.987688 -0.000001 -0.156435
vn -1.000000 0.000000 0.000000
vn 0.000000 1.000000 0.000000
vn -1.000000 0.000000 0.000000
vn -0.987688 0.000001 -0.156434
vn -0.987688 -0.000001 -0.156435
vn -0.987688 0.000001 -0.156434
vn -1.000000 0.000000 0.000000
vn -0.987688 0.000001 -0.156434
vn -1.000000 0.000000 0.000000
vn -1.000000 0.000000 0.000000
vn 0.000000 1.000000 0.000000
vn -0.309017 0.000000 -0.951057
vn -0.309016 0.000000 -0.951057
vn 0.000000 0.000000 -1.000000
vn -0.309016 0.000000 -0.951057
vn -0.309016 0.000000 -0.951057
vn -0.309017 0.000000 -0.951057
vn -0.309016 0.000000 -0.951057
vn -0.309017 0.000000 -0.951057
vn -0.309016 0.000000 -0.951057
vn -0.309016 0.000000 -0.951057
vn -0.309017 0.000000 -0.951057
vn 0.000000 0.000000 1.000000
vn -0.309016 0.000000 0.951057
vn 0.000000 0.000000 1.000000
vn 0.000000 0.000000 1.000000
vn -0.309016 0.000000 0.951057
vn -0.309016 0.000000 0.951057
vn -0.309016 0.000000 0.951057
vn -0.309016 0.000000 0.951057
vn -0.309016 0.000000 0.951057
vn -0.309016 0.000000 0.951057
vn -0.309016 0.000000 0.951057
vn -0.309016 0.000000 0.951057
vn 0.121664 0.000000 -0.992571
vn -0.035107 0.000000 -0.999384
vn 0.121665 0.000000 -0.992571
vn 0.121665 0.000000 -0.992571
vn -0.035107 0.000000 -0.999384
vn -0.035107 0.000000 -0.999384
vn 0.000000 1.000000 0.000000
vn 0.000000 1.000000 0.000000
vn 0.000000 1.000000 0.000000
vn 0.000000 1.000000 0.000000
vn 0.000000 1.000000 0.000000
vn 0.000000 1.000000 0.000000
vn 0.275436 0.000000 -0.961319
vn 0.121664 0.000000 -0.992571
vn 0.275437 0.000000 -0.961319
vn 0.275437 0.000000 -0.961319
vn 0.121664 0.000000 -0.992571
vn 0.121665 0.000000 -0.992571
vn -0.000001 -1.000000 0.000000
vn 0.000000 -1.000000 0.000000
vn 0.000000 -1.000000 0.000000
vn 0.000000 -1.000000 0.000000
vn 0.000000 -1.000000 0.000000
vn 0.000001 -1.000000 0.000000
vn 0.000000 1.000000 0.000000
vn 0.000000 1.000000 0.000000
vn 0.000000 1.000000 0.000000
vn 0.000000 1.000000 0.000000
vn 0.000000 1.000000 0.000000
vn 0.000000 1.000000 0.000000
vn 0.000000 -1.000000 0.000000
vn 0.000001 -1.000000 0.000000
vn 0.000001 -1.000000 0.000000
vn 0.000001 -1.000000 0.000000
vn 0.000001 -1.000000 0.000000
vn 0.000001 -1.000000 0.000000
vn -1.000000 0.000000 0.000000
vn -0.121664 0.000000 0.992571
vn 0.035106 0.000000 0.999384
vn 1.000000 0.000000 0.000000
vn 0.035106 0.000000 0.999384
vn 0.035106 0.000000 0.999384
vn -0.121664 0.000000 0.992571
vn -0.121665 0.000000 0.992571
vn 0.035106 0.000000 0.999384
vn -0.121665 0.000000 0.992571
vn 0.035106 0.000000 0.999384
vn 0.035106 0.000000 0.999384
vn 0.000000 0.000000 0.000000
vn -0.275438 0.000000 0.961319
vn -0.121664 0.000000 0.992571
vn 0.000000 0.000000 0.000000
vn -0.121665 0.000000 0.992571
vn -0.275438 0.000000 0.961319
vn -0.275438 0.000000 0.961319
vn -0.275438 0.000000 0.961319
vn -0.121664 0.000000 0.992571
vn -0.275438 0.000000 0.961319
vn -0.121665 0.000000 0.992571
vn -0.121664 0.000000 0.992571
vn 0.907875 0.419242 0.000000
vn -0.981588 0.000000 0.191013
vn -0.981588 0.000000 0.191012
vn -1.000000 0.000000 0.000000
vn -0.981588 0.000000 0.191012
vn -0.981588 0.000000 0.191012
vn -0.981588 0.000000 0.191013
vn -0.981588 0.000000 0.191012
vn -0.981588 0.000000 0.191013
vn -0.981588 0.000000 0.191012
vn -0.981588 0.000000 0.191012
vn -0.981588 0.000000 0.191013
vn 1.000000 0.000000 0.000000
vn 0.906396 0.000000 0.422429
vn 1.000000 0.000000 0.000000
vn 1.000000 0.000000 0.000000
vn 0.906396 0.000000 0.422429
vn 0.906396 0.000000 0.422429
vn 0.906396 0.000000 0.422429
vn 0.906395 0.000000 0.422431
vn 0.906396 0.000000 0.422429
vn 0.906395 0.000000 0.422431
vn 0.906395 0.000000 0.422431
vn 0.906396 0.000000 0.422429
vn 0.029869 0.000000 -0.999554
vn -0.126863 0.000000 -0.991920
vn 0.029869 0.000000 -0.999554
vn 0.029869 0.000000 -0.999554
vn -0.126863 0.000000 -0.991920
vn -0.126863 0.000000 -0.991920
vn 0.000000 1.000000 0.000000
vn 0.000000 1.000000 0.000000
vn 0.000000 1.000000 0.000000
vn 0.000000 1.000000 0.000000
vn 0.000000 1.000000 0.000000
vn 0.000000 1.000000 0.000000
vn 0.185866 0.000000 -0.982575
vn 0.029869 0.000000 -0.999554
vn 0.185866 0.000000 -0.982575
vn 0.185866 0.000000 -0.982575
vn 0.029869 0.000000 -0.999554
vn 0.029869 0.000000 -0.999554
vn 0.000000 -1.000000 0.000000
vn 0.000000 -1.000000 0.000000
vn 0.000000 -1.000000 0.000000
vn 0.000000 -1.000000 0.000000
vn 0.000000 -1.000000 0.000000
vn 0.000000 -1.000000 0.000000
vn -0.000001 1.000000 0.000000
vn 0.000000 1.000000 0.000000
vn 0.000000 1.000000 0.000000
vn 0.000000 1.000000 0.000000
vn 0.000000 1.000000 0.000000
vn 0.000000 1.000000 0.000000
vn 0.000000 -1.000000 0.000000
vn 0.000000 -1.000000 0.000000
vn 0.000000 -1.000000 0.000000
vn 0.000000 -1.000000 0.000000
vn 0.000000 -1.000000 0.000000
vn 0.000000 -1.000000 0.000000
vn -0.004631 -0.999989 0.000000
vn -0.029869 0.000000 0.999554
vn 0.126862 0.000000 0.991920
vn 1.000000 0.000000 0.000000
vn 0.126862 0.000000 0.991920
vn 0.126862 0.000001 0.991920
vn -0.029869 0.000000 0.999554
vn -0.029869 0.000000 0.999554
vn 0.126862 0.000000 0.991920
vn -0.029869 0.000000 0.999554
vn 0.126862 0.000001 0.991920
vn 0.126862 0.000000 0.991920
vn 0.000000 0.000000 0.000000
vn -0.185867 0.000000 0.982575
vn -0.029869 0.000000 0.999554
vn 0.000000 0.000000 0.000000
vn -0.029869 0.000000 0.999554
vn -0.185866 0.000000 0.982575
vn -0.185867 0.000000 0.982575
vn -0.185866 0.000000 0.982575
vn -0.029869 0.000000 0.999554
vn -0.185866 0.000000 0.982575
vn -0.029869 0.000000 0.999554
vn -0.029869 0.000000 0.999554
vn 0.571640 0.820505 0.000000
vn -0.959863 0.000000 0.280470
vn -0.959863 0.000000 0.280470
vn -1.000000 0.000000 0.000000
vn -0.959863 0.000000 0.280470
vn -0.959863 0.000000 0.280470
vn -0.959863 0.000000 0.280470
vn -0.959863 0.000000 0.280470
vn -0.959863 0.000000 0.280470
vn -0.959863 0.000000 0.280470
vn -0.959863 0.000000 0.280470
vn -0.959863 0.000000 0.280470
vn 1.000000 0.000000 0.000000
vn 0.941402 0.000000 0.337286
vn 1.000000 0.000000 0.000000
vn 1.000000 0.000000 0.000000
vn 0.941402 0.000000 0.337286
vn 0.941402 0.000000 0.337286
vn 0.941402 0.000000 0.337286
vn 0.941402 0.000000 0.337286
vn 0.941402 0.000000 0.337286
vn 0.941402 0.000000 0.337286
vn 0.941402 0.000000 0.337286
vn 0.941402 0.000000 0.337286
s off
g initialShadingGroup polySurface106
f 3/1/1 1/2/2 4/3/3
f 4/3/4 1/2/5 2/4/6
f 5/5/7 4/6/8 6/7/9
f 6/7/10 4/6/11 2/8/12
f 11/9/13 3/1/14 13/10/15
f 13/10/16 3/1/17 4/3/18
f 7/11/19 1/12/20 8/13/21
f 8/13/22 1/12/23 3/14/24
f 14/15/25 13/16/26 5/5/27
f 5/5/28 13/16/29 4/6/30
f 8/13/31 3/14/32 12/17/33
f 12/17/34 3/14/35 11/18/36
f 7/19/37 8/20/38 10/21/39
f 9/22/40 10/21/41 6/23/42
f 8/20/43 5/24/44 10/21/45
f 5/24/46 6/23/47 10/21/48
f 12/25/49 15/26/50 8/20/51
f 14/27/52 5/24/53 16/28/54
f 15/26/55 16/28/56 8/20/57
f 16/28/58 5/24/59 8/20/60
f 6/7/61 2/4/62 9/22/63
f 10/21/64 9/22/65 7/19/66
f 1/12/67 7/19/68 2/4/69
f 7/19/70 9/22/71 2/4/72
f 15/26/73 12/17/74 16/28/75
f 16/28/76 12/17/77 14/27/78
f 12/17/79 11/9/80 14/27/81
f 11/9/82 13/16/83 14/27/84
f 19/29/85 17/30/86 20/31/87
f 20/31/88 17/30/89 18/32/90
f 21/33/91 20/34/92 22/35/93
f 22/35/94 20/34/95 18/36/96
f 27/37/97 19/29/98 29/38/99
f 29/38/100 19/29/101 20/31/102
f 23/39/103 17/40/104 24/41/105
f 24/41/106 17/40/107 19/42/108
f 30/43/109 29/44/110 21/33/111
f 21/33/112 29/44/113 20/34/114
f 24/41/115 19/42/116 28/45/117
f 28/45/118 19/42/119 27/46/120
f 23/47/121 24/48/122 26/49/123
f 25/50/124 26/49/125 22/51/126
f 24/48/127 21/52/128 26/49/129
f 21/52/130 22/51/131 26/49/132
f 28/53/133 31/54/134 24/48/135
f 30/55/136 21/52/137 32/56/138
f 31/54/139 32/56/140 24/48/141
f 32/56/142 21/52/143 24/48/144
f 22/35/145 18/32/146 25/50/147
f 26/49/148 25/50/149 23/47/150
f 17/40/151 23/47/152 18/32/153
f 23/47/154 25/50/155 18/32/156
f 31/54/157 28/45/158 32/56/159
f 32/56/160 28/45/161 30/55/162
f 28/45/163 27/37/164 30/55/165
f 27/37/166 29/44/167 30/55/168
f 35/57/169 33/58/170 36/59/171
f 36/59/172 33/58/173 34/60/174
f 37/61/175 36/62/176 38/63/177
f 38/63/178 36/62/179 34/64/180
f 43/65/181 35/57/182 45/66/183
f 45/66/184 35/57/185 36/59/186
f 39/67/187 33/68/188 40/69/189
f 40/69/190 33/68/191 35/70/192
f 46/71/193 45/72/194 37/61/195
f 37/61/196 45/72/197 36/62/198
f 40/69/199 35/70/200 44/73/201
f 44/73/202 35/70/203 43/74/204
f 39/75/205 40/76/206 42/77/207
f 41/78/208 42/77/209 38/79/210
f 40/76/211 37/80/212 42/77/213
f 37/80/214 38/79/215 42/77/216
f 44/81/217 47/82/218 40/76/219
f 46/83/220 37/80/221 48/84/222
f 47/82/223 48/84/224 40/76/225
f 48/84/226 37/80/227 40/76/228
f 38/63/229 34/60/230 41/78/231
f 42/77/232 41/78/233 39/75/234
f 33/68/235 39/75/236 34/60/237
f 39/75/238 41/78/239 34/60/240
f 47/82/241 44/73/242 48/84/243
f 48/84/244 44/73/245 46/83/246
f 44/73/247 43/65/248 46/83/249
f 43/65/250 45/72/251 46/83/252
f 51/85/253 49/86/254 52/87/255
f 52/87/256 49/86/257 50/88/258
f 53/89/259 52/90/260 54/91/261
f 54/91/262 52/90/263 50/92/264
f 59/93/265 51/85/266 61/94/267
f 61/94/268 51/85/269 52/87/270
f 55/95/271 49/96/272 56/97/273
f 56/97/274 49/96/275 51/98/276
f 62/99/277 61/100/278 53/89/279
f 53/89/280 61/100/281 52/90/282
f 56/97/283 51/98/284 60/101/285
f 60/101/286 51/98/287 59/102/288
f 55/103/289 56/104/290 58/105/291
f 57/106/292 58/105/293 54/107/294
f 56/104/295 53/108/296 58/105/297
f 53/108/298 54/107/299 58/105/300
f 60/109/301 63/110/302 56/104/303
f 62/111/304 53/108/305 64/112/306
f 63/110/307 64/112/308 56/104/309
f 64/112/310 53/108/311 56/104/312
f 54/91/313 50/88/314 57/106/315
f 58/105/316 57/106/317 55/103/318
f 49/96/319 55/103/320 50/88/321
f 55/103/322 57/106/323 50/88/324
f 63/110/325 60/101/326 64/112/327
f 64/112/328 60/101/329 62/111/330
f 60/101/331 59/93/332 62/111/333
f 59/93/334 61/100/335 62/111/336
f 67/113/337 65/114/338 68/115/339
f 68/115/340 65/114/341 66/116/342
f 69/117/343 68/118/344 70/119/345
f 70/119/346 68/118/347 66/120/348
f 75/121/349 67/113/350 77/122/351
f 77/122/352 67/113/353 68/115/354
f 71/123/355 65/124/356 72/125/357
f 72/125/358 65/124/359 67/126/360
f 78/127/361 77/128/362 69/117/363
f 69/117/364 77/128/365 68/118/366
f 72/125/367 67/126/368 76/129/369
f 76/129/370 67/126/371 75/130/372
f 71/131/373 72/132/374 74/133/375
f 73/134/376 74/133/377 70/135/378
f 72/132/379 69/136/380 74/133/381
f 69/136/382 70/135/383 74/133/384
f 76/137/385 79/138/386 72/132/387
f 78/139/388 69/136/389 80/140/390
f 79/138/391 80/140/392 72/132/393
f 80/140/394 69/136/395 72/132/396
f 70/119/397 66/116/398 73/134/399
f 74/133/400 73/134/401 71/131/402
f 65/124/403 71/131/404 66/116/405
f 71/131/406 73/134/407 66/116/408
f 79/138/409 76/129/410 80/140/411
f 80/140/412 76/129/413 78/139/414
f 76/129/415 75/121/416 78/139/417
f 75/121/418 77/128/419 78/139/420
